<?xml version="1.0" encoding="UTF-8"?>
<svg xmlns="http://www.w3.org/2000/svg" version="1.1"
     width="1200" height="700" viewBox="0 0 1200 700">

  <!-- Background card -->
  <rect x="20" y="20" width="1160" height="660" rx="22" ry="22"
        fill="#0f172a" stroke="#1f2937" stroke-width="1"/>

  <!-- Header -->
  <text x="52" y="80"
        font-family="Segoe UI, Arial, sans-serif" font-size="24" font-weight="700"
        fill="#f8fafc">💖 Thanks for your support</text>
  <text x="52" y="104"
        font-family="Segoe UI, Arial, sans-serif" font-size="14" font-weight="500"
        fill="#cbd5e1">Mỗi đóng góp đều giúp mình duy trì &amp; phát triển dự án. Cảm ơn bạn!</text>

  <!-- Top separator -->
  <line x1="36" y1="118" x2="1164" y2="118" stroke="#1f2937" stroke-width="1" opacity="0.65"/>

  <!-- PAYPAL -->
  <rect x="36" y="130" width="1128" height="82" rx="12" ry="12" fill="#0b1220" opacity="0.35"/>
  <rect x="52" y="154" width="160" height="34" rx="8" ry="8" fill="#0ea5e9"/>
  <text x="72" y="176" font-family="Segoe UI, Arial, sans-serif" font-weight="800" font-size="14" fill="#ffffff">PAYPAL</text>
  <rect x="232" y="154" width="896" height="34" rx="8" ry="8" fill="#3b82f6"/>
  <text x="244" y="176" font-family="Menlo, Consolas, 'Liberation Mono', monospace" font-weight="800" font-size="13.5" fill="#ffffff">PAYPAL.ME/HUNGSYN</text>
  <text x="52" y="204" font-family="Menlo, Consolas, 'Liberation Mono', monospace" font-size="13" fill="#9ca3af">Tip: Bạn có thể đặt thêm link PayPal ngay trên README để người dùng bấm nhanh.</text>

  <!-- Divider -->
  <line x1="36" y1="224" x2="1164" y2="224" stroke="#1f2937" stroke-width="1" opacity="0.65"/>

  <!-- ETH / POL -->
  <rect x="36" y="236" width="1128" height="82" rx="12" ry="12" fill="#0b1220" opacity="0.35"/>
  <rect x="52" y="260" width="160" height="34" rx="8" ry="8" fill="#1d4ed8"/>
  <text x="72" y="282" font-family="Segoe UI, Arial, sans-serif" font-weight="800" font-size="14" fill="#ffffff">ETH / POL</text>
  <rect x="232" y="260" width="896" height="34" rx="8" ry="8" fill="#2563eb"/>
  <text x="244" y="282" font-family="Menlo, Consolas, 'Liberation Mono', monospace" font-weight="800" font-size="13.5" fill="#ffffff">0XF56D2AB9C35CD51DD5366B96FE7622D99DE06458</text>
  <text x="232" y="306" font-family="Menlo, Consolas, 'Liberation Mono', monospace" font-size="15.5" fill="#e5e7eb">0xf56d2ab9c35cd51dd5366b96fe7622d99de06458</text>

  <!-- BTC -->
  <rect x="36" y="318" width="1128" height="82" rx="12" ry="12" fill="#0b1220" opacity="0.35"/>
  <rect x="52" y="342" width="160" height="34" rx="8" ry="8" fill="#b45309"/>
  <text x="72" y="364" font-family="Segoe UI, Arial, sans-serif" font-weight="800" font-size="14" fill="#ffffff">BTC</text>
  <rect x="232" y="342" width="896" height="34" rx="8" ry="8" fill="#f59e0b"/>
  <text x="244" y="364" font-family="Menlo, Consolas, 'Liberation Mono', monospace" font-weight="800" font-size="13.5" fill="#ffffff">BC1QZGK2TC0UJEZGREDXWX0GD6YKMCDFF94AZFNVJ5</text>
  <text x="232" y="388" font-family="Menlo, Consolas, 'Liberation Mono', monospace" font-size="15.5" fill="#e5e7eb">bc1qzgk2tc0ujezgredxwx0gd6ykmcdff94azfnvj5</text>

  <!-- SOL -->
  <rect x="36" y="400" width="1128" height="82" rx="12" ry="12" fill="#0b1220" opacity="0.35"/>
  <rect x="52" y="424" width="160" height="34" rx="8" ry="8" fill="#7c3aed"/>
  <text x="72" y="446" font-family="Segoe UI, Arial, sans-serif" font-weight="800" font-size="14" fill="#ffffff">SOL</text>
  <rect x="232" y="424" width="896" height="34" rx="8" ry="8" fill="#a855f7"/>
  <text x="244" y="446" font-family="Menlo, Consolas, 'Liberation Mono', monospace" font-weight="800" font-size="13.5" fill="#ffffff">7PTERKBWTNDYNU8NFTAKPN6KE8GDCKZYG5XUHP9EHGWX</text>
  <text x="232" y="470" font-family="Menlo, Consolas, 'Liberation Mono', monospace" font-size="15.5" fill="#e5e7eb">7PterKBwtNdYNu8nftAKpn6ke8GdCkzyg5xUHp9EhGWx</text>

  <!-- SUI -->
  <rect x="36" y="482" width="1128" height="82" rx="12" ry="12" fill="#0b1220" opacity="0.35"/>
  <rect x="52" y="506" width="160" height="34" rx="8" ry="8" fill="#0e7490"/>
  <text x="72" y="528" font-family="Segoe UI, Arial, sans-serif" font-weight="800" font-size="14" fill="#ffffff">SUI</text>
  <rect x="232" y="506" width="896" height="34" rx="8" ry="8" fill="#06b6d4"/>
  <text x="244" y="528" font-family="Menlo, Consolas, 'Liberation Mono', monospace" font-weight="800" font-size="13.5" fill="#ffffff">0XD43D68CA78EF074251F9265AF0F7AF3CC52B62DAA9F44B918378F54728C7175</text>
  <text x="232" y="552" font-family="Menlo, Consolas, 'Liberation Mono', monospace" font-size="15.5" fill="#e5e7eb">0x0d43d68ca78ef074251f9265af0f7af3cc52b62daa9f44b918378f54728c7175</text>

  <!-- Footer -->
  <line x1="36" y1="572" x2="1164" y2="572" stroke="#1f2937" stroke-width="1" opacity="0.65"/>
  <rect x="52" y="586" width="300" height="34" rx="8" ry="8" fill="#334155"/>
  <text x="66" y="608" font-family="Segoe UI, Arial, sans-serif" font-weight="800" font-size="14" fill="#ffffff">I APPRECIATE YOUR SUPPORT</text>
  <text x="52" y="638" font-family="Menlo, Consolas, 'Liberation Mono', monospace" font-size="13" fill="#9ca3af">Muốn 1-click copy? Hãy thêm các địa chỉ dưới dạng code block trong README (GitHub sẽ có nút Copy).</text>

</svg>
